<svg width="64" height="63" viewBox="0 0 64 63" fill="none" xmlns="http://www.w3.org/2000/svg">
<g clip-path="url(#clip0_70_23)">
<path d="M2.82812 13.9844C2.31012 13.9844 1.81334 14.1902 1.44706 14.5564C1.08078 14.9227 0.875 15.4195 0.875 15.9375L0.875 47.1875C0.875 47.7055 1.08078 48.2023 1.44706 48.5686C1.81334 48.9349 2.31012 49.1406 2.82812 49.1406C3.34613 49.1406 3.84291 48.9349 4.20919 48.5686C4.57548 48.2023 4.78125 47.7055 4.78125 47.1875V34.5039L29.2617 48.707C31.3711 49.9297 34.0781 48.4492 34.0781 45.9844V34.5L58.5586 48.7031C60.668 49.9297 63.375 48.4492 63.375 45.9844V17.1406C63.375 14.6797 60.668 13.1953 58.5586 14.4219L34.0781 28.625V17.1406C34.0781 14.6797 31.375 13.1953 29.2617 14.4219L4.78125 28.625V15.9375C4.78125 15.4195 4.57548 14.9227 4.20919 14.5564C3.84291 14.1902 3.34613 13.9844 2.82812 13.9844V13.9844Z" fill="white"/>
</g>
<defs>
<clipPath id="clip0_70_23">
<rect width="62.5" height="62.5" fill="white" transform="translate(0.875 0.3125)"/>
</clipPath>
</defs>
</svg>
