<svg width="79" height="79" viewBox="0 0 79 79" fill="none" xmlns="http://www.w3.org/2000/svg">
<g clip-path="url(#clip0_70_17)">
<path d="M27.7969 28.3438L35.9268 37.9043L27.8018 47.4649C25.9165 49.3241 23.5237 50.5845 20.9241 51.0875C18.3245 51.5905 15.6342 51.3138 13.1915 50.292C10.7487 49.2702 8.66262 47.5491 7.1954 45.345C5.72817 43.1408 4.94535 40.5521 4.94535 37.9043C4.94535 35.2565 5.72817 32.6678 7.1954 30.4636C8.66262 28.2595 10.7487 26.5384 13.1915 25.5166C15.6342 24.4949 18.3245 24.2181 20.9241 24.7211C23.5237 25.2241 25.9165 26.4845 27.8018 28.3438H27.7969ZM39.125 34.1348L31.3906 25.0283L31.3223 24.9551C28.7613 22.3948 25.4987 20.6514 21.9469 19.9452C18.3951 19.2391 14.7137 19.602 11.3682 20.988C8.02267 22.3741 5.16324 24.721 3.15147 27.732C1.13969 30.7431 0.065918 34.283 0.065918 37.9043C0.065918 41.5256 1.13969 45.0655 3.15147 48.0766C5.16324 51.0876 8.02267 53.4346 11.3682 54.8206C14.7137 56.2066 18.3951 56.5695 21.9469 55.8634C25.4987 55.1572 28.7613 53.4138 31.3223 50.8535L31.3906 50.7803L39.125 41.6738L46.8594 50.7803L46.9277 50.8535C49.4887 53.4138 52.7513 55.1572 56.3031 55.8634C59.8549 56.5695 63.5363 56.2066 66.8818 54.8206C70.2273 53.4346 73.0868 51.0876 75.0985 48.0766C77.1103 45.0655 78.1841 41.5256 78.1841 37.9043C78.1841 34.283 77.1103 30.7431 75.0985 27.732C73.0868 24.721 70.2273 22.3741 66.8818 20.988C63.5363 19.602 59.8549 19.2391 56.3031 19.9452C52.7513 20.6514 49.4887 22.3948 46.9277 24.9551L46.8594 25.0283L39.125 34.1348ZM42.3281 37.9043L50.4482 28.3438C52.3335 26.4845 54.7263 25.2241 57.3259 24.7211C59.9255 24.2181 62.6158 24.4949 65.0585 25.5166C67.5013 26.5384 69.5874 28.2595 71.0546 30.4636C72.5218 32.6678 73.3047 35.2565 73.3047 37.9043C73.3047 40.5521 72.5218 43.1408 71.0546 45.345C69.5874 47.5491 67.5013 49.2702 65.0585 50.292C62.6158 51.3138 59.9255 51.5905 57.3259 51.0875C54.7263 50.5845 52.3335 49.3241 50.4482 47.4649L42.3281 37.9043Z" fill="white"/>
</g>
<defs>
<clipPath id="clip0_70_17">
<rect width="78.125" height="78.125" fill="white" transform="translate(0.0625 0.0625)"/>
</clipPath>
</defs>
</svg>
