<svg width="24" height="24" viewBox="0 0 24 24" fill="none" xmlns="http://www.w3.org/2000/svg">
<mask id="mask0_24_114" style="mask-type:alpha" maskUnits="userSpaceOnUse" x="0" y="0" width="24" height="24">
<rect width="24" height="24" fill="#D9D9D9"/>
</mask>
<g mask="url(#mask0_24_114)">
<path d="M8.9 22L10.1 18.2L7 16H10.8L11.5 13.7L7.95 11.6C7.65 11.4167 7.41667 11.175 7.25 10.875C7.08333 10.575 7 10.2333 7 9.85V2H17V9.85C17 10.2333 16.9167 10.575 16.75 10.875C16.5833 11.175 16.35 11.4167 16.05 11.6L12.5 13.7L13.2 16H17L13.9 18.2L15.1 22L12 19.65L8.9 22ZM11 4V11.05L12 11.65L13 11.05V4H11Z" fill="#BCBCBC"/>
</g>
</svg>
