<svg width="16" height="17" viewBox="0 0 16 17" fill="none" xmlns="http://www.w3.org/2000/svg">
<mask id="mask0_6_200" style="mask-type:alpha" maskUnits="userSpaceOnUse" x="0" y="0" width="16" height="17">
<rect y="0.5" width="16" height="16" fill="#D9D9D9"/>
</mask>
<g mask="url(#mask0_6_200)">
<path d="M8.33331 10.5C8.79998 10.5 9.19442 10.3389 9.51665 10.0167C9.83887 9.69444 9.99998 9.29999 9.99998 8.83333V5.16666H12V3.83333H9.33331V7.49999C9.18887 7.38888 9.03331 7.30555 8.86665 7.24999C8.69998 7.19444 8.5222 7.16666 8.33331 7.16666C7.86665 7.16666 7.4722 7.32777 7.14998 7.64999C6.82776 7.97222 6.66665 8.36666 6.66665 8.83333C6.66665 9.29999 6.82776 9.69444 7.14998 10.0167C7.4722 10.3389 7.86665 10.5 8.33331 10.5ZM5.33331 12.5C4.96665 12.5 4.65287 12.3695 4.39198 12.1087C4.13065 11.8473 3.99998 11.5333 3.99998 11.1667V3.16666C3.99998 2.79999 4.13065 2.48599 4.39198 2.22466C4.65287 1.96377 4.96665 1.83333 5.33331 1.83333H13.3333C13.7 1.83333 14.014 1.96377 14.2753 2.22466C14.5362 2.48599 14.6666 2.79999 14.6666 3.16666V11.1667C14.6666 11.5333 14.5362 11.8473 14.2753 12.1087C14.014 12.3695 13.7 12.5 13.3333 12.5H5.33331ZM2.66665 15.1667C2.29998 15.1667 1.9862 15.0362 1.72531 14.7753C1.46398 14.514 1.33331 14.2 1.33331 13.8333V4.49999H2.66665V13.8333H12V15.1667H2.66665Z" fill="#BCBCBC"/>
</g>
</svg>
