<svg width="56" height="56" viewBox="0 0 56 56" fill="none"
    xmlns="http://www.w3.org/2000/svg">
    <path fill-rule="evenodd" clip-rule="evenodd" d="M27.75 11.0977C31.4436 11.0991 35.0373 12.2971 37.9929 14.5123C40.9485 16.7276 43.1069 19.8407 44.1447 23.3855C45.1826 26.9303 45.044 30.716 43.7499 34.1754C42.4557 37.6349 40.0756 40.582 36.966 42.5752C33.8564 44.5685 30.1847 45.5007 26.5008 45.2321C22.817 44.9636 19.3193 43.5087 16.5317 41.0856C13.744 38.6624 11.8165 35.4013 11.0377 31.7907C10.2589 28.1801 10.6709 24.4144 12.2119 21.0576C12.3796 20.6495 12.383 20.1923 12.2213 19.7818C12.0596 19.3712 11.7454 19.0391 11.3444 18.855C10.9434 18.6708 10.4868 18.6489 10.07 18.7938C9.65321 18.9387 9.30863 19.2391 9.10836 19.6323C7.25927 23.6607 6.76512 28.1797 7.69992 32.5125C8.63472 36.8453 10.9481 40.7586 14.2937 43.6663C17.6392 46.5739 21.8367 48.3194 26.2575 48.6412C30.6783 48.963 35.0844 47.8439 38.8157 45.4514C42.5471 43.0589 45.4029 39.5219 46.9553 35.3702C48.5078 31.2184 48.6733 26.6755 47.4271 22.4218C46.1809 18.1681 43.5901 14.4326 40.0427 11.7749C36.4954 9.11727 32.1824 7.68044 27.75 7.67969V11.0977Z" fill="white"/>
    <path d="M27.75 16.1084V2.66899C27.7499 2.50663 27.7036 2.34764 27.6164 2.21065C27.5293 2.07365 27.4049 1.96433 27.2579 1.89547C27.1108 1.82661 26.9472 1.80107 26.7862 1.82184C26.6252 1.84261 26.4734 1.90883 26.3486 2.01274L18.2822 8.73247C18.186 8.81266 18.1087 8.91301 18.0556 9.02641C18.0025 9.13982 17.975 9.2635 17.975 9.38872C17.975 9.51393 18.0025 9.63762 18.0556 9.75102C18.1087 9.86442 18.186 9.96477 18.2822 10.045L26.3486 16.7647C26.4734 16.8686 26.6252 16.9348 26.7862 16.9556C26.9472 16.9764 27.1108 16.9508 27.2579 16.882C27.4049 16.8131 27.5293 16.7038 27.6164 16.5668C27.7036 16.4298 27.7499 16.2708 27.75 16.1084V16.1084Z" fill="white"/>
</svg>
