<svg width="260" height="66" viewBox="0 0 260 66" fill="none" xmlns="http://www.w3.org/2000/svg">
<path d="M27.5312 30.0312C27.1562 30.6562 26.2188 31.6667 24.7188 33.0625C23.2396 34.4583 21.5938 35.9271 19.7812 37.4688C17.9688 38.9896 16.3854 40.3021 15.0312 41.4062L12.9688 43.0938L14.3125 43.4062C15.1875 43.6354 16.2604 43.9583 17.5312 44.375C18.8021 44.7917 20.0521 45.2917 21.2812 45.875C22.5104 46.4583 23.5104 47.1146 24.2812 47.8438C25.2396 48.8646 25.7708 50 25.875 51.25C25.8958 51.5833 25.9062 51.8958 25.9062 52.1875C25.9062 53.0417 25.7708 53.8646 25.5 54.6562C25.25 55.4479 24.9792 55.875 24.6875 55.9375C24.6042 55.9583 24.5208 55.9688 24.4375 55.9688C24.1458 55.9688 23.8958 55.8542 23.6875 55.625C23.4792 55.4167 23.3021 54.9792 23.1562 54.3125C21.8438 53.2083 19.9479 52.25 17.4688 51.4375C15.0104 50.6042 12.4688 49.8542 9.84375 49.1875C6.46875 48.3333 3.90625 47.5104 2.15625 46.7188C1.44792 46.2188 0.979167 45.7083 0.75 45.1875C0.541667 44.7292 0.4375 44.2812 0.4375 43.8438C0.4375 43.7604 0.447917 43.5833 0.46875 43.3125C0.489583 43.0208 0.59375 42.6771 0.78125 42.2812C0.96875 41.8646 1.15625 41.5312 1.34375 41.2812L1.625 40.9375H1.75C1.79167 40.9167 1.85417 40.9062 1.9375 40.9062C2 40.9062 2.10417 40.9167 2.25 40.9375C2.41667 40.9583 2.6875 40.9896 3.0625 41.0312C3.4375 41.0521 3.91667 41.0938 4.5 41.1562C4.89583 40.8854 6.11458 39.8542 8.15625 38.0625C10.1979 36.25 12.4896 34.1979 15.0312 31.9062C17.5729 29.5938 19.8229 27.5521 21.7812 25.7812L24.6875 23.1562C26 23.3438 26.9375 24.2083 27.5 25.75C27.7917 26.5208 27.9375 27.2708 27.9375 28C27.9375 28.7083 27.8021 29.3854 27.5312 30.0312ZM32.0312 4.96875C32.1979 4.98958 32.3542 5.08333 32.5 5.25C32.6458 5.41667 32.7917 5.625 32.9375 5.875C33.1875 6.29167 33.5104 6.69792 33.9062 7.09375C34.3021 7.46875 34.8438 7.67708 35.5312 7.71875C38.4688 7.65625 42.9479 6.91667 48.9688 5.5C57.2188 3.45833 64.7292 2.35417 71.5 2.1875C74.75 2.35417 77.2188 2.94792 78.9062 3.96875C80.5938 4.96875 81.6979 6.11458 82.2188 7.40625C82.5312 8.21875 82.6875 8.95833 82.6875 9.625C82.6875 10 82.5833 10.5208 82.375 11.1875C82.1875 11.8333 81.7188 12.1667 80.9688 12.1875C80.8021 12.1667 80.6042 11.9583 80.375 11.5625C80.0833 11 79.5 10.3854 78.625 9.71875C77.7708 9.05208 76.3438 8.65625 74.3438 8.53125H73.5312C72.3021 8.53125 70.8229 8.61458 69.0938 8.78125C67.3646 8.92708 65.5729 9.125 63.7188 9.375C61.8854 9.625 60.3542 9.85417 59.125 10.0625L57.25 10.375C56.9375 11.1875 56.25 12.8021 55.1875 15.2188C53.4583 19.1979 51.375 24.1667 48.9375 30.125C46.5 36.0833 44.3854 41.7292 42.5938 47.0625C40.9896 51.8125 40.1875 55.3125 40.1875 57.5625C40.1875 57.8333 40.1979 58.0938 40.2188 58.3438C39.8229 58.4271 39.3958 58.4688 38.9375 58.4688C38.375 58.4688 37.625 58.3854 36.6875 58.2188C35.7708 58.0729 34.9062 57.5104 34.0938 56.5312C33.4896 55.8021 33.1875 54.7396 33.1875 53.3438C33.1875 52.9062 33.2188 52.4375 33.2812 51.9375C35.2812 45.9583 37.75 39.875 40.6875 33.6875C44.0208 26.6667 46.9062 19.375 49.3438 11.8125L47.5 12.4375C46.2708 12.8542 44.7917 13.2396 43.0625 13.5938C41.4167 13.9479 39.8021 14.125 38.2188 14.125H37.9688C35.6146 13.9375 33.8958 13.2188 32.8125 11.9688C31.7292 10.7188 31.1146 9.57292 30.9688 8.53125C30.8854 8.01042 30.8438 7.55208 30.8438 7.15625C30.8438 6.59375 30.9479 6.09375 31.1562 5.65625C31.3854 5.19792 31.6771 4.96875 32.0312 4.96875ZM60.9688 18.9062C61.4896 18.7188 62.0208 18.625 62.5625 18.625C63.1458 18.625 63.875 18.7917 64.75 19.125C65.6458 19.4375 66.3646 20.1667 66.9062 21.3125C67.1146 21.7917 67.2188 22.3125 67.2188 22.875C67.2188 23.7083 67 24.6458 66.5625 25.6875C66.375 26.125 66.1562 26.6042 65.9062 27.125C65.1146 28.875 64.2083 30.8958 63.1875 33.1875C62.1875 35.4792 61.2396 37.7083 60.3438 39.875C59.4688 42.0417 58.8333 43.8125 58.4375 45.1875C58.25 45.8333 58.1562 46.3229 58.1562 46.6562C58.1562 46.9479 58.2396 47.0938 58.4062 47.0938H58.5C59.6042 46.5521 61.25 44.5521 63.4375 41.0938C65.6458 37.6354 68.1042 33.3958 70.8125 28.375C73.5208 23.3333 75.3958 19.8229 76.4375 17.8438C76.8333 17.1146 77.0729 16.6771 77.1562 16.5312C77.3021 16.3229 77.5208 16.2188 77.8125 16.2188C77.9583 16.2188 78.2292 16.2812 78.625 16.4062C79.0208 16.5104 79.5208 16.7604 80.125 17.1562C80.75 17.5521 81.2917 18.1562 81.75 18.9688C82.0625 19.5104 82.2188 20.1354 82.2188 20.8438C82.2188 21.2188 82.1771 21.6042 82.0938 22C77.0312 31.625 74.0104 38.3229 73.0312 42.0938C72.1562 45.3646 71.7188 47.9375 71.7188 49.8125C71.7188 50.0833 71.7604 50.7604 71.8438 51.8438C71.9271 52.9062 72.1667 53.75 72.5625 54.375C72.3333 54.8958 71.7292 55.2708 70.75 55.5C70.1458 55.6458 69.5208 55.7188 68.875 55.7188C68.4792 55.7188 67.8958 55.6667 67.125 55.5625C66.3542 55.4792 65.6667 55.1667 65.0625 54.625C64.3542 53.8333 64 52.7292 64 51.3125C64 49.9167 64.1875 48.4792 64.5625 47C64.9375 45.5208 65.3229 44.25 65.7188 43.1875L66.3125 41.625L65.3438 43.25C64.6979 44.3542 63.8854 45.5938 62.9062 46.9688C61.9271 48.3438 60.9062 49.5312 59.8438 50.5312C58.9062 51.4062 58.0312 51.8438 57.2188 51.8438H56.9688C53.8229 51.2812 52.0833 49.1042 51.75 45.3125V45C51.75 43.875 52.1667 42 53 39.375C53.8542 36.7292 54.8958 33.8229 56.125 30.6562C57.375 27.4896 58.5 24.7396 59.5 22.4062L60.9688 18.9062ZM84.3125 20.0625C84.9167 19.875 85.5 19.7812 86.0625 19.7812C86.6875 19.7812 87.4271 19.9375 88.2812 20.25C89.1562 20.5417 89.7188 21.1458 89.9688 22.0625C89.9896 22.1875 90 22.3229 90 22.4688C90 23.1771 89.8021 24.2292 89.4062 25.625C89.0312 27 88.5521 28.5208 87.9688 30.1875C87.3854 31.8542 86.8542 33.2812 86.375 34.4688L85.6562 36.2812L87.3125 33.5625C88.3958 31.75 89.6979 29.6771 91.2188 27.3438C92.7604 24.9896 94.2708 22.9062 95.75 21.0938C97.2292 19.2604 98.3438 18.3438 99.0938 18.3438H99.25C99.5625 18.3438 100.062 18.5208 100.75 18.875C101.458 19.2292 102.115 19.7708 102.719 20.5C103.219 21.1042 103.469 21.7917 103.469 22.5625C103.469 22.7292 103.458 22.8958 103.438 23.0625C103.271 23.875 102.562 25.6979 101.312 28.5312C100.062 31.3646 98.875 34.5521 97.75 38.0938C96.6458 41.6354 96.0208 44.8229 95.875 47.6562C95.8542 48.0729 95.8438 48.4896 95.8438 48.9062C95.8438 51.2812 96.1979 53.5104 96.9062 55.5938C96.0312 56.3229 95.0833 56.8333 94.0625 57.125C93.4583 57.2917 92.8646 57.375 92.2812 57.375C91.8646 57.375 91.3125 57.3021 90.625 57.1562C89.9583 57.0104 89.2812 56.3438 88.5938 55.1562C88.0104 54.1146 87.7188 52.6146 87.7188 50.6562C87.7188 50.4062 87.7396 49.6354 87.7812 48.3438C87.8229 47.0521 88.3958 44.7604 89.5 41.4688C90.6042 38.1562 91.8958 34.75 93.375 31.25C94.875 27.75 95.6771 25.875 95.7812 25.625C92.7812 28.8542 89.6771 33.6562 86.4688 40.0312C83.2604 46.3854 81.0729 51.3854 79.9062 55.0312C77.6979 55.0312 76.2917 54.3854 75.6875 53.0938C75.2292 52.1146 75 51.1354 75 50.1562C75 49.8229 75.0208 49.4896 75.0625 49.1562C75.25 47.9479 75.8021 45.8229 76.7188 42.7812C77.6562 39.7188 78.7083 36.4479 79.875 32.9688C81.0417 29.4896 82.0729 26.4688 82.9688 23.9062L84.3125 20.0625ZM114.156 38.7812C115.135 38.9479 115.99 39.3021 116.719 39.8438C117.448 40.3646 118.062 40.9375 118.562 41.5625C119.062 42.1667 119.438 42.6979 119.688 43.1562L120.031 43.8438L118.969 45.5312C118.24 46.6771 117.281 47.9896 116.094 49.4688C114.906 50.9271 113.573 52.25 112.094 53.4375C110.615 54.6042 109.115 55.2188 107.594 55.2812H107.281C105.344 55.2812 103.458 54.3438 101.625 52.4688C99.8125 50.5938 98.875 48.9167 98.8125 47.4375C98.7917 47.1667 98.7812 46.8854 98.7812 46.5938C98.7812 43.4688 99.6354 39.7188 101.344 35.3438C103.052 30.9688 105.135 27.0312 107.594 23.5312C110.073 20.0104 112.26 18.1979 114.156 18.0938H114.281C114.823 18.0938 115.844 18.2292 117.344 18.5C118.865 18.75 120.323 19.2083 121.719 19.875C123.135 20.5417 123.875 21.4583 123.938 22.625V22.9062C123.938 24.9896 122.823 27.4479 120.594 30.2812C118.385 33.1146 116.01 35.6354 113.469 37.8438C110.948 40.0312 109.365 41.1354 108.719 41.1562H108.531C107.927 41.1562 107.208 40.9896 106.375 40.6562C105.833 43.0104 105.5 45.0104 105.375 46.6562C105.333 47.1146 105.312 47.5104 105.312 47.8438C105.312 48.8021 105.438 49.4062 105.688 49.6562C105.75 49.6979 105.823 49.7188 105.906 49.7188C106.344 49.7188 107.042 49.1771 108 48.0938C108.958 46.9896 110.031 45.5417 111.219 43.75C112.406 41.9583 113.385 40.3021 114.156 38.7812ZM118.594 22.9062C116.385 23.0104 114.438 24.125 112.75 26.25C111.062 28.375 109.656 30.8854 108.531 33.7812C110.115 32.4271 111.667 30.9167 113.188 29.25C114.729 27.5625 116.01 26.0833 117.031 24.8125L118.594 22.9062ZM178.125 36.6875C178.062 43.3125 173.625 48.8646 164.812 53.3438C156.021 57.8021 145.635 60.0312 133.656 60.0312C132.927 61.0104 132.208 62.7812 131.5 65.3438L131.438 65.5312C130.208 65.4896 129.188 65.3125 128.375 65C127.562 64.7083 126.917 64.3542 126.438 63.9375C125.958 63.5208 125.604 63.1042 125.375 62.6875C125.146 62.2917 125 61.9479 124.938 61.6562L124.844 61.25L125.781 58.875C123.26 57.75 121.635 56.2708 120.906 54.4375C120.323 52.9792 120.031 51.5521 120.031 50.1562C120.031 49.7812 120.094 49.0729 120.219 48.0312C120.344 46.9896 120.552 46.0417 120.844 45.1875C120.865 45.125 120.875 45.0625 120.875 45C121.208 43.8125 121.76 42.7604 122.531 41.8438C123.177 41.0729 123.854 40.6875 124.562 40.6875C124.708 40.6875 124.844 40.6979 124.969 40.7188C125.802 40.9479 126.438 41.3021 126.875 41.7812C127.312 42.2396 127.604 42.75 127.75 43.3125C127.917 43.8542 127.99 44.375 127.969 44.875C127.969 45.375 127.938 45.7917 127.875 46.125L127.75 46.625C127.625 46.6042 127.5 46.5938 127.375 46.5938C126.938 46.5938 126.479 46.7812 126 47.1562C125.521 47.5312 125.062 48.0417 124.625 48.6875C124.188 49.3125 123.844 49.8854 123.594 50.4062L123.219 51.1875C123.865 51.9167 124.583 52.4479 125.375 52.7812C126.188 53.0938 126.938 53.3229 127.625 53.4688C127.708 53.4896 127.802 53.5104 127.906 53.5312C129.656 49.0729 131.656 43.9896 133.906 38.2812C136.156 32.5521 138.146 27.4896 139.875 23.0938C141.604 18.6979 142.562 16.2396 142.75 15.7188C143.771 15.3646 144.646 15.1875 145.375 15.1875C146.062 15.1875 146.729 15.4375 147.375 15.9375C148.042 16.4375 148.385 17.3229 148.406 18.5938V18.875C148.406 20.0625 148.156 21.1875 147.656 22.25C149.573 21.8125 151.896 20.8646 154.625 19.4062C157.354 17.9271 159.76 16.2396 161.844 14.3438C163.948 12.4479 165.021 10.6562 165.062 8.96875C164.833 7.28125 163.385 6.4375 160.719 6.4375C160.594 6.4375 159.771 6.45833 158.25 6.5C156.729 6.54167 153.979 7.23958 150 8.59375C146.021 9.94792 142.312 11.625 138.875 13.625C135.458 15.6042 133.115 17.5938 131.844 19.5938L130.969 19.3438C130.385 19.1979 129.719 18.9688 128.969 18.6562C128.24 18.3229 127.604 17.8958 127.062 17.375C126.562 16.8958 126.312 16.3125 126.312 15.625V15.5312C127.167 12.3854 127.646 9.6875 127.75 7.4375C127.771 6.83333 127.781 6.26042 127.781 5.71875C127.781 4.28125 127.688 3.03125 127.5 1.96875L127.188 0.40625H127.656C129.073 0.40625 130.229 0.6875 131.125 1.25C132.021 1.79167 132.667 2.52083 133.062 3.4375C133.458 4.33333 133.688 5.23958 133.75 6.15625C133.792 6.61458 133.812 7.04167 133.812 7.4375C133.812 7.8125 133.781 8.23958 133.719 8.71875L133.625 9.4375L136.625 7.4375C138.604 6.125 141.427 4.8125 145.094 3.5C148.76 2.16667 153.115 1.5 158.156 1.5C160.615 1.5 163.396 2.29167 166.5 3.875C169.604 5.4375 171.26 7.60417 171.469 10.375C171.344 12.3542 170.562 14.2188 169.125 15.9688C167.708 17.6979 166.062 19.2396 164.188 20.5938C162.333 21.9271 160.688 22.9792 159.25 23.75L157.062 24.9375L159.125 24.9062H159.438C160.792 24.9062 162.438 25.0312 164.375 25.2812C166.333 25.5312 168.344 26.0521 170.406 26.8438C172.469 27.6354 174.219 28.8229 175.656 30.4062C177.115 31.9688 177.938 34.0625 178.125 36.6875ZM136.125 54.125C145.5 53.4792 152.948 51.8854 158.469 49.3438C163.99 46.7812 167.927 44.1042 170.281 41.3125C172.531 38.6875 173.656 36.7083 173.656 35.375V35.1875C173.385 33.0625 171.604 31.6146 168.312 30.8438C166.104 30.3229 163.635 30.0625 160.906 30.0625C159.531 30.0625 157.344 30.1979 154.344 30.4688C151.344 30.7188 147.917 31.5521 144.062 32.9688C143.875 33.5938 143.49 34.6562 142.906 36.1562C142.344 37.6562 141.688 39.375 140.938 41.3125C139.979 43.7292 139.052 46.1146 138.156 48.4688C137.281 50.8021 136.604 52.6875 136.125 54.125ZM197.094 19.25C199.615 20.2917 201.042 22.2604 201.375 25.1562C201.458 25.9062 201.5 26.6771 201.5 27.4688C201.5 29.6771 201.115 32.2083 200.344 35.0625C199.573 37.9167 198.635 40.5 197.531 42.8125C196.385 45.4167 194.49 48.1562 191.844 51.0312C189.74 53.3438 187.438 54.5 184.938 54.5C184.333 54.5 183.708 54.4271 183.062 54.2812C180.438 53.4688 178.76 51.1042 178.031 47.1875C177.885 46.3542 177.812 45.4583 177.812 44.5C177.812 40.9375 178.875 36.5 181 31.1875C183.479 25.5625 186.177 21.9271 189.094 20.2812C190.927 19.2396 192.667 18.7188 194.312 18.7188C195.271 18.7188 196.198 18.8958 197.094 19.25ZM184.312 50.0938C185.958 49.4479 187.594 47.6979 189.219 44.8438C190.865 41.9896 192.292 38.8125 193.5 35.3125C194.729 31.7917 195.552 28.6979 195.969 26.0312C196.115 25.1354 196.188 24.3854 196.188 23.7812C196.188 22.6354 195.917 22.0625 195.375 22.0625C194.583 22.0625 193.146 23.8958 191.062 27.5625C189 31.2292 187.219 35.25 185.719 39.625C184.615 42.7708 184.062 45.4688 184.062 47.7188C184.062 48.5729 184.146 49.3646 184.312 50.0938ZM205.312 21.3438C206.833 20.3021 208.052 19.75 208.969 19.6875H209.281C210.052 19.6875 210.646 19.9062 211.062 20.3438C211.5 20.7812 211.781 21.2604 211.906 21.7812C211.969 22.0312 212.042 22.3021 212.125 22.5938C212.271 23.2396 212.531 24.1667 212.906 25.375C213.281 26.5833 213.927 28.3229 214.844 30.5938C214.948 30.5312 215.344 30.2083 216.031 29.625C216.719 29.0417 217.562 28.3229 218.562 27.4688C220.167 26.1146 221.719 24.8125 223.219 23.5625C224.719 22.2917 225.646 21.5521 226 21.3438C226.042 21.3229 226.083 21.3125 226.125 21.3125C226.333 21.3125 226.625 21.5 227 21.875C227.396 22.25 227.802 22.7812 228.219 23.4688C228.635 24.1562 228.927 24.8438 229.094 25.5312C229.177 25.8021 229.219 26.0625 229.219 26.3125C229.219 26.6667 229.135 26.9688 228.969 27.2188C228.615 27.7188 227.833 28.5104 226.625 29.5938C225.417 30.6562 224.083 31.8229 222.625 33.0938C220.354 35.0104 218.573 36.5938 217.281 37.8438C218.198 40.0521 219.458 42.6979 221.062 45.7812C222.688 48.8438 224.083 51.2917 225.25 53.125V53.2812C225.25 53.7812 224.927 54.1875 224.281 54.5C223.635 54.8125 222.875 54.9688 222 54.9688C221.125 54.9688 220.417 54.7708 219.875 54.375C218.917 53.2292 217.781 51.5104 216.469 49.2188C215.156 46.9271 213.885 44.4896 212.656 41.9062C210.281 43.9688 208.469 45.8125 207.219 47.4375C205.969 49.0625 205.104 50.4375 204.625 51.5625C204.146 52.6875 203.885 53.5417 203.844 54.125L203.781 55L203.344 55.0938C203.031 55.1771 202.656 55.2188 202.219 55.2188H202.062C201.646 55.2188 201.208 55.1458 200.75 55C200.312 54.8333 199.896 54.5208 199.5 54.0625C199.125 53.5833 198.854 52.8958 198.688 52C198.667 51.7917 198.656 51.5729 198.656 51.3438C198.656 49.5521 199.479 47.4792 201.125 45.125C202.771 42.75 204.844 40.1562 207.344 37.3438C208.073 36.4896 208.812 35.6354 209.562 34.7812C208.729 32.9688 207.99 31.0312 207.344 28.9688C206.719 26.9062 206.229 25.1146 205.875 23.5938L205.312 21.3438ZM258.812 36.75C259.125 37.5833 259.281 38.4271 259.281 39.2812C259.281 39.8229 259.167 40.5938 258.938 41.5938C258.708 42.5729 258.208 43.2604 257.438 43.6562C257.125 43.7812 256.365 44.1042 255.156 44.625C253.969 45.1458 252.521 45.7812 250.812 46.5312C247.688 47.9062 244.604 49.2604 241.562 50.5938C238.542 51.9271 236.604 52.75 235.75 53.0625C234.75 53.5208 233.927 54.0938 233.281 54.7812C232.635 55.4688 232 55.8542 231.375 55.9375C230.896 55.8958 230.406 55.4583 229.906 54.625C229.427 53.7917 229.156 52.8125 229.094 51.6875V51.4375C229.094 50.4167 229.469 49.4792 230.219 48.625C231.219 47.625 233.062 46.5312 235.75 45.3438C238.458 44.1562 241.562 42.875 245.062 41.5C247.438 40.5625 249.833 39.6042 252.25 38.625C251.875 38.2917 251.031 37.7292 249.719 36.9375C248.427 36.125 246.938 35.1979 245.25 34.1562C243.604 33.1562 242 32.1771 240.438 31.2188C238.896 30.2604 237.646 29.4375 236.688 28.75C235.958 28.2292 235.458 27.6562 235.188 27.0312C234.938 26.4688 234.812 25.9062 234.812 25.3438C234.812 25.3021 234.823 25.125 234.844 24.8125C234.865 24.5 234.958 24.0938 235.125 23.5938C235.312 23.0938 235.5 22.6875 235.688 22.375L235.938 21.9375C236.146 22.3333 237.146 23.0833 238.938 24.1875C240.729 25.2708 242.865 26.5208 245.344 27.9375C248.51 29.7292 251.427 31.4583 254.094 33.125C256.781 34.7708 258.354 35.9792 258.812 36.75Z" fill="white"/>
</svg>
